<?xml version="1.0" encoding="utf-8"?>
<!--suppress ALL -->
<svg xmlns="http://www.w3.org/2000/svg" viewBox="375.7766 500 25.394 25.394" width="25.394px" height="25.394px" xmlns:bx="https://boxy-svg.com"><defs><linearGradient id="color-0" bx:pinned="true" gradientUnits="userSpaceOnUse" gradientTransform="matrix(0.645682, 0, 0, 0.74925, 434.248772, 764.88183)"><title>Background</title><stop style="stop-color: rgb(75, 85, 99);"/></linearGradient><linearGradient id="color-1" bx:pinned="true" gradientUnits="userSpaceOnUse" gradientTransform="matrix(0.807204, -0.057066, 0.070944, 0.824254, -5099.074764, -8116.958557)"><title>accent</title><stop style="stop-color: rgb(255, 193, 0);"/></linearGradient></defs><g transform="matrix(1, 0, 0, 1, 29.731542587280273, 0.09701500087976456)" id="object-0"><title>tower-2</title><rect style="paint-order: fill; stroke-dashoffset: 54px; stroke-miterlimit: 1; filter: none; stroke-width: 1; stroke: url(&quot;#color-1&quot;); fill: url(&quot;#color-0&quot;);" x="346.045" y="499.903" width="25.394" height="25.394" rx="5.3" ry="5.3"/><g transform="matrix(0.003919, 0, 0, -0.005492, 350.472137, 521.618286)" fill="#000000" stroke="none" style="filter: none;" id="group-30"><path d="M 1984.677 3129.778 C 1689.777 3068.358 1497.08 2939.87 1493.54 2937.28 C 1486.45 2929.49 1210.14 2267.73 1213.69 2265.99 C 1373.373 2366.216 2275.76 2654.218 2828.15 2640.02 L 2589.03 3168.24 C 2589.03 3168.24 2279.587 3191.198 1984.677 3129.778 Z" style="fill: url(&quot;#color-1&quot;);" transform="matrix(0.99984801, -0.017452, 0.017452, 0.99984801, -47.11161419, 35.68177834)"/><path d="M 1991.505 2435.193 C 1476.055 2325.683 1064.38 2155.18 1064.38 2155.18 C 1064.38 2155.18 723.274 1309.557 672.722 1195.046 C 735.14 1282.331 1221.555 1488.627 1836.63 1628.946 L 1836.63 1788.208 C 1836.63 1938.701 1958.629 2060.7 2109.122 2060.7 L 2129.701 2060.7 C 2280.194 2060.7 2402.193 1938.701 2402.193 1788.208 L 2402.193 1730.539 C 2713.828 1770.776 3034.738 1784.643 3334.54 1753.11 C 3334.54 1753.11 3273.98 1930.3 3176.75 2154.04 C 3009.65 2538.26 2975.66 2561.86 2975.66 2561.86 C 2975.66 2561.86 2506.955 2545.653 1991.505 2435.193 Z M 672.722 1195.046 C 669.523 1190.573 667.438 1186.413 666.506 1182.59 C 666.288 1180.985 668.484 1185.447 672.722 1195.046 Z" style="fill: url(&quot;#color-1&quot;);"/><path d="M 1971.254 1541.319 C 1154.458 1366.363 527 1041 519 1038 C 511 1035 430 849 338 624 C 246 399 140 140 140 140 L 1782.55 140 L 1782.55 536.598 C 1782.55 687.091 1904.549 809.09 2055.042 809.09 L 2157.452 809.09 C 2307.945 809.09 2429.944 687.091 2429.944 536.598 L 2429.944 140 L 3285 140 C 4097 140 4189 142 4183 155 C 4142 264 3540.825 1664.455 3514 1676 C 3496.616 1677.717 2788.254 1716.319 1971.254 1541.319 Z" style="fill: url(&quot;#color-1&quot;);"/></g></g></svg>
