<?xml version="1.0" encoding="utf-8"?>
<!--suppress ALL -->
<svg xmlns="http://www.w3.org/2000/svg" viewBox="214.7284 356.0079 69.0148 36" width="69.0148px" height="36px" xmlns:bx="https://boxy-svg.com"><defs><linearGradient id="color-0" bx:pinned="true" gradientUnits="userSpaceOnUse" gradientTransform="matrix(0.645682, 0, 0, 0.74925, 384.041837, 244.209076)"><title>Background</title><stop style="stop-color: rgb(75, 85, 99);"/></linearGradient><linearGradient id="color-1" bx:pinned="true" gradientUnits="userSpaceOnUse" gradientTransform="matrix(0.810148, -0.028836, 0.014384, 0.825743, -4550.296249, -10556.497429)"><title>accent</title><stop style="stop-color: rgb(255, 193, 0);"/></linearGradient></defs><g transform="matrix(1, 0, 0, 1, 114.40944671630858, 182.5028533935547)" id="object-2"><title>blabel-black</title><path d="M 163.59 225.95 L 163.59 207.75 L 169.16 207.75 Q 171.4 207.75 172.42 208.84 Q 173.44 209.93 173.44 212.44 L 173.44 212.84 Q 173.44 214.29 172.92 215.18 Q 172.4 216.08 171.34 216.36 Q 172.26 216.6 172.77 217.24 Q 173.28 217.89 173.47 218.82 Q 173.67 219.76 173.67 220.86 Q 173.67 221.78 173.47 222.68 Q 173.26 223.59 172.77 224.33 Q 172.27 225.07 171.39 225.51 Q 170.51 225.95 169.16 225.95 Z M 167.6 214.9 L 168.44 214.9 Q 169.02 214.9 169.18 214.46 Q 169.34 214.02 169.34 213.4 L 169.34 212.15 Q 169.34 211.16 168.47 211.16 L 167.6 211.16 Z M 168.01 222.57 Q 169.61 222.57 169.61 221.05 L 169.61 220 Q 169.61 219.13 169.35 218.62 Q 169.09 218.11 168.36 218.11 L 167.6 218.11 L 167.6 222.55 Q 167.7 222.56 167.81 222.56 Q 167.92 222.57 168.01 222.57 Z M 175.01 225.95 L 175.01 207.75 L 179.12 207.75 L 179.12 222.45 L 183.35 222.45 L 183.35 225.95 Z M 201.32 225.95 L 201.32 207.75 L 206.88 207.75 Q 209.12 207.75 210.15 208.84 Q 211.17 209.93 211.17 212.44 L 211.17 212.84 Q 211.17 214.29 210.65 215.18 Q 210.13 216.08 209.07 216.36 Q 209.99 216.6 210.5 217.24 Q 211 217.89 211.2 218.82 Q 211.4 219.76 211.4 220.86 Q 211.4 221.78 211.2 222.68 Q 210.99 223.59 210.5 224.33 Q 210 225.07 209.12 225.51 Q 208.24 225.95 206.88 225.95 Z M 205.33 214.9 L 206.17 214.9 Q 206.74 214.9 206.91 214.46 Q 207.07 214.02 207.07 213.4 L 207.07 212.15 Q 207.07 211.16 206.2 211.16 L 205.33 211.16 Z M 205.74 222.57 Q 207.34 222.57 207.34 221.05 L 207.34 220 Q 207.34 219.13 207.08 218.62 Q 206.81 218.11 206.09 218.11 L 205.33 218.11 L 205.33 222.55 Q 205.42 222.56 205.54 222.56 Q 205.65 222.57 205.74 222.57 Z M 212.76 225.95 L 212.76 207.75 L 220.97 207.75 L 220.97 211.72 L 216.93 211.72 L 216.93 214.73 L 220.81 214.73 L 220.81 218.59 L 216.93 218.59 L 216.93 221.95 L 221.24 221.95 L 221.24 225.95 Z M 222.59 225.95 L 222.59 207.75 L 226.7 207.75 L 226.7 222.45 L 230.92 222.45 L 230.92 225.95 Z" transform="matrix(1, 0, 0, 1, -62.361, -24.450001)" style="fill: url(&quot;#color-0&quot;); text-wrap-mode: nowrap;"/><path transform="matrix(1, 0, 0, 1, -62.361, -24.450001)" style="fill: url(&quot;#color-0&quot;); text-wrap-mode: nowrap;"/><g transform="matrix(0.003919, 0, 0, -0.005492, 121.275024, 202.802628)" fill="#000000" stroke="none" style="" id="group-5"><path d="M 1977.8 3256.25 C 1683.89 3194.84 1493.33 3066.37 1489.83 3063.78 C 1482.87 3056 1217.65 2394.33 1221.23 2392.59 C 1226.61 2388.27 2829.64 2766.57 2829.64 2766.57 L 2581.6 3294.71 C 2581.6 3294.71 2271.72 3317.66 1977.8 3256.25 Z" style="fill: url(&quot;#color-1&quot;); transform-box: fill-box; transform-origin: 50% 50%;" transform="matrix(0.999701, -0.017449, 0.034268, 0.999701, 0.000006, 0.000003)"/><path d="M 2015.57 2487.32 C 1500.12 2377.81 1064.38 2281.72 1064.38 2281.72 C 1064.38 2281.72 663.688 1288.38 666.506 1309.13 C 1433.01 1820.51 3054.46 1935.3 3334.54 1879.65 C 3334.54 1879.65 3273.98 2056.84 3176.75 2280.58 C 3009.65 2664.8 2975.66 2688.4 2975.66 2688.4 C 2975.66 2688.4 2531.02 2597.78 2015.57 2487.32 Z" style="fill: url(&quot;#color-1&quot;);"/><path d="M 1947.19 1639.24 C 1130.39 1464.28 527 1167.54 519 1164.54 C 511 1161.54 430 975.537 338 750.537 C 246 525.537 140 266.537 140 266.537 L 1005 266.537 L 1870 266.537 L 1870 494.537 C 1870 764.537 1876 793.537 1951 868.537 C 2058 975.537 2215 968.537 2317 852.537 C 2375 786.537 2380 759.537 2380 497.537 L 2380 266.537 L 3285 266.537 C 4097 266.537 4189 268.537 4183 281.537 C 4142 390.537 3540.82 1790.99 3514 1802.54 C 3496.62 1804.25 2764.19 1814.24 1947.19 1639.24 Z" style="fill: url(&quot;#color-1&quot;);"/></g></g></svg>
