<?xml version="1.0" encoding="utf-8"?>
<!--suppress ALL -->
<svg xmlns="http://www.w3.org/2000/svg" viewBox="71.6591 323.5457 67.345 18.2274" width="67.345px" height="18.2274px" xmlns:bx="https://boxy-svg.com"><defs><linearGradient id="color-2" bx:pinned="true" gradientUnits="userSpaceOnUse" gradientTransform="matrix(1.783104, 0, 0, 2.543328, -510.19709, -505.265064)"><title>text</title><stop style="stop-color: rgb(255, 255, 255);"/></linearGradient><linearGradient id="color-1" bx:pinned="true" gradientUnits="userSpaceOnUse" gradientTransform="matrix(0.807204, -0.057066, 0.070944, 0.824254, -5099.074764, -8116.958557)"><title>accent</title><stop style="stop-color: rgb(255, 193, 0);"/></linearGradient></defs><g transform="matrix(1, 0, 0, 1, -29.56989288330078, 140.24569702148438)" id="group-34"><title>blabel-white-text</title><path d="M 101.229 201.505 L 101.229 183.3 L 106.796 183.3 C 108.289 183.3 109.377 183.664 110.058 184.391 C 110.739 185.118 111.079 186.318 111.079 187.991 L 111.079 188.388 C 111.079 189.353 110.906 190.135 110.559 190.734 C 110.213 191.333 109.686 191.725 108.978 191.912 C 109.593 192.068 110.069 192.362 110.408 192.793 C 110.746 193.225 110.981 193.752 111.114 194.375 C 111.246 194.997 111.312 195.674 111.312 196.405 C 111.312 197.02 111.244 197.629 111.108 198.232 C 110.972 198.835 110.739 199.383 110.408 199.877 C 110.077 200.371 109.618 200.766 109.031 201.062 C 108.444 201.357 107.699 201.505 106.796 201.505 L 101.229 201.505 Z M 105.244 190.454 L 106.084 190.454 C 106.465 190.454 106.71 190.306 106.819 190.01 C 106.928 189.715 106.983 189.361 106.983 188.948 L 106.983 187.699 C 106.983 187.038 106.691 186.708 106.107 186.708 L 105.244 186.708 L 105.244 190.454 Z M 105.652 198.121 C 106.718 198.121 107.251 197.615 107.251 196.604 L 107.251 195.553 C 107.251 194.97 107.163 194.509 106.988 194.17 C 106.813 193.832 106.485 193.663 106.002 193.663 L 105.244 193.663 L 105.244 198.097 C 105.306 198.105 105.374 198.111 105.448 198.115 C 105.522 198.119 105.59 198.121 105.652 198.121 Z" style="fill: url(&quot;#color-2&quot;); stroke-width: 5px; text-wrap-mode: nowrap;"/><path d="M 112.665 201.505 L 112.665 183.3 L 116.773 183.3 L 116.773 198.004 L 120.997 198.004 L 120.997 201.505 L 112.665 201.505 Z" style="fill: url(&quot;#color-2&quot;); stroke-width: 5px; text-wrap-mode: nowrap;"/><path d="M 138.967 201.505 L 138.967 183.3 L 144.533 183.3 C 146.027 183.3 147.114 183.664 147.795 184.391 C 148.476 185.118 148.816 186.318 148.816 187.991 L 148.816 188.388 C 148.816 189.353 148.643 190.135 148.297 190.734 C 147.951 191.333 147.424 191.725 146.716 191.912 C 147.331 192.068 147.807 192.362 148.145 192.793 C 148.484 193.225 148.719 193.752 148.851 194.375 C 148.984 194.997 149.05 195.674 149.05 196.405 C 149.05 197.02 148.982 197.629 148.846 198.232 C 148.709 198.835 148.476 199.383 148.145 199.877 C 147.814 200.371 147.355 200.766 146.768 201.062 C 146.181 201.357 145.436 201.505 144.533 201.505 L 138.967 201.505 Z M 142.981 190.454 L 143.822 190.454 C 144.203 190.454 144.448 190.306 144.557 190.01 C 144.666 189.715 144.72 189.361 144.72 188.948 L 144.72 187.699 C 144.72 187.038 144.428 186.708 143.845 186.708 L 142.981 186.708 L 142.981 190.454 Z M 143.39 198.121 C 144.456 198.121 144.989 197.615 144.989 196.604 L 144.989 195.553 C 144.989 194.97 144.901 194.509 144.726 194.17 C 144.551 193.832 144.222 193.663 143.74 193.663 L 142.981 193.663 L 142.981 198.097 C 143.044 198.105 143.112 198.111 143.186 198.115 C 143.259 198.119 143.327 198.121 143.39 198.121 Z" style="fill: url(&quot;#color-2&quot;); stroke-width: 5px; text-wrap-mode: nowrap;"/><path d="M 150.402 201.505 L 150.402 183.3 L 158.618 183.3 L 158.618 187.268 L 154.58 187.268 L 154.58 190.279 L 158.455 190.279 L 158.455 194.141 L 154.58 194.141 L 154.58 197.502 L 158.886 197.502 L 158.886 201.505 L 150.402 201.505 Z" style="fill: url(&quot;#color-2&quot;); stroke-width: 5px; text-wrap-mode: nowrap;"/><path d="M 160.241 201.505 L 160.241 183.3 L 164.349 183.3 L 164.349 198.004 L 168.574 198.004 L 168.574 201.505 L 160.241 201.505 Z" style="fill: url(&quot;#color-2&quot;); stroke-width: 5px; text-wrap-mode: nowrap;"/><g transform="matrix(0.003919, 0, 0, -0.005853, 121.579552, 202.346802)" fill="#000000" stroke="none" style="filter: none;" id="group-35"><path d="M 1984.677 3129.778 C 1689.777 3068.358 1497.08 2939.87 1493.54 2937.28 C 1486.45 2929.49 1210.14 2267.73 1213.69 2265.99 C 1373.373 2366.216 2275.76 2654.218 2828.15 2640.02 L 2589.03 3168.24 C 2589.03 3168.24 2279.587 3191.198 1984.677 3129.778 Z" style="fill: url(&quot;#color-1&quot;);" transform="matrix(0.99984801, -0.017452, 0.017452, 0.99984801, -47.11161419, 35.68177834)"/><path d="M 1991.505 2435.193 C 1476.055 2325.683 1064.38 2155.18 1064.38 2155.18 C 1064.38 2155.18 723.274 1309.557 672.722 1195.046 C 735.14 1282.331 1221.555 1488.627 1836.63 1628.946 L 1836.63 1788.208 C 1836.63 1938.701 1958.629 2060.7 2109.122 2060.7 L 2129.701 2060.7 C 2280.194 2060.7 2402.193 1938.701 2402.193 1788.208 L 2402.193 1730.539 C 2713.828 1770.776 3034.738 1784.643 3334.54 1753.11 C 3334.54 1753.11 3273.98 1930.3 3176.75 2154.04 C 3009.65 2538.26 2975.66 2561.86 2975.66 2561.86 C 2975.66 2561.86 2506.955 2545.653 1991.505 2435.193 Z M 672.722 1195.046 C 669.523 1190.573 667.438 1186.413 666.506 1182.59 C 666.288 1180.985 668.484 1185.447 672.722 1195.046 Z" style="fill: url(&quot;#color-1&quot;);"/><path d="M 1971.254 1541.319 C 1154.458 1366.363 527 1041 519 1038 C 511 1035 430 849 338 624 C 246 399 140 140 140 140 L 1782.55 140 L 1782.55 536.598 C 1782.55 687.091 1904.549 809.09 2055.042 809.09 L 2157.452 809.09 C 2307.945 809.09 2429.944 687.091 2429.944 536.598 L 2429.944 140 L 3285 140 C 4097 140 4189 142 4183 155 C 4142 264 3540.825 1664.455 3514 1676 C 3496.616 1677.717 2788.254 1716.319 1971.254 1541.319 Z" style="fill: url(&quot;#color-1&quot;);"/></g></g></svg>
