<?xml version="1.0" encoding="utf-8"?>
<svg
  xmlns="http://www.w3.org/2000/svg"
  viewBox="107.09 189.797 86.223 60.143"
  width="86.223px"
  height="60.143px"
  xmlns:bx="https://boxy-svg.com"
>
  <defs>
    <linearGradient
      id="color-0"
      bx:pinned="true"
      gradientUnits="userSpaceOnUse"
    >
      <title>background</title>
      <stop style="stop-color: rgb(75, 85, 99)" />
    </linearGradient>
    <linearGradient
      id="color-1"
      bx:pinned="true"
      gradientUnits="userSpaceOnUse"
    >
      <title>accent</title>
      <stop style="stop-color: rgb(234, 179, 8)" />
    </linearGradient>
    <linearGradient
      id="color-2"
      bx:pinned="true"
      gradientUnits="userSpaceOnUse"
    >
      <title>text</title>
      <stop style="stop-color: rgb(255, 255, 255)" />
    </linearGradient>
  </defs>
  <g id="logo">
    <path
      class="balloon"
      d="M 124.335 189.797 L 176.068 189.797 C 185.661 189.797 193.313 196.933 193.313 205.598 L 193.313 221.398 C 193.313 230.164 185.661 237.299 176.068 237.299 L 158.823 237.299 L 141.578 249.94 L 141.578 237.299 L 124.335 237.299 C 114.741 237.299 107.09 230.164 107.09 221.5 L 107.09 205.699 C 107.09 196.933 114.741 189.797 124.335 189.797 Z"
      style="
        stroke-miterlimit: 8.55;
        stroke-dashoffset: -11px;
        stroke: url(&quot;#color-1&quot;);
        fill: url(&quot;#color-0&quot;);
      "
      id="balloon"
    />
    <g>
      <path
        d="M 121.79 207.33 Q 121.09 207.33 120.65 206.88 Q 120.22 206.43 120.22 205.76 Q 120.22 205.06 120.65 204.62 Q 121.09 204.19 121.79 204.19 Q 122.46 204.19 122.89 204.62 Q 123.33 205.06 123.33 205.76 Q 123.33 206.43 122.89 206.88 Q 122.46 207.33 121.79 207.33 Z M 121.09 224.07 Q 120.81 224.07 120.81 223.79 L 120.81 210.18 Q 120.81 209.9 121.09 209.9 L 122.51 209.9 Q 122.79 209.9 122.79 210.18 L 122.79 223.79 Q 122.79 224.07 122.51 224.07 L 121.09 224.07 Z"
        transform="matrix(1, 0, 0, 0.819672, -0.23747, 40.678933)"
        style="fill: url(&quot;#color-1&quot;); text-wrap-mode: nowrap"
      />
      <g
        transform="matrix(0.003919, 0, 0, -0.005492, 135.634585, 224.708545)"
        fill="#000000"
        stroke="none"
        style=""
        id="tower"
      >
        <path
          d="M 2035.52 3054.92 C 1740.62 2993.5 1497.08 2939.87 1493.54 2937.28 C 1486.45 2929.49 1210.14 2267.73 1213.69 2265.99 C 1219 2261.67 2828.15 2640.02 2828.15 2640.02 L 2589.03 3168.24 C 2589.03 3168.24 2330.43 3116.34 2035.52 3054.92 Z"
          style="
            transform-box: fill-box;
            transform-origin: 50% 50%;
            fill: url(&quot;#color-1&quot;);
          "
          transform="matrix(0.999848, -0.017452, 0.017452, 0.999848, 0, -0.000002)"
        />
        <path
          d="M 2015.57 2360.78 C 1500.12 2251.27 1064.38 2155.18 1064.38 2155.18 C 1064.38 2155.18 663.688 1161.84 666.506 1182.59 C 1281.02 1321.34 3334.54 1753.11 3334.54 1753.11 C 3334.54 1753.11 3273.98 1930.3 3176.75 2154.04 C 3009.65 2538.26 2975.66 2561.86 2975.66 2561.86 C 2975.66 2561.86 2531.02 2471.24 2015.57 2360.78 Z"
          style="fill: url(&quot;#color-1&quot;)"
        />
        <path
          d="M 2019 1360 C 1202.204 1185.044 527 1041 519 1038 C 511 1035 430 849 338 624 C 246 399 140 140 140 140 L 1005 140 L 1870 140 L 1870 368 C 1870 638 1876 667 1951 742 C 2058 849 2215 842 2317 726 C 2375 660 2380 633 2380 371 L 2380 140 L 3285 140 C 4097 140 4189 142 4183 155 C 4142 264 3540.825 1664.455 3514 1676 C 3496.616 1677.717 2836 1535 2019 1360 Z"
          style="fill: url(&quot;#color-1&quot;)"
        />
      </g>
      <path
        d="M 125.85 223.97 L 125.85 203.68 L 131.34 203.68 Q 133.56 203.68 134.56 204.76 Q 135.57 205.84 135.57 208.32 L 135.57 209.2 Q 135.57 210.63 135.06 211.52 Q 134.55 212.41 133.5 212.68 Q 134.87 213.03 135.34 214.3 Q 135.8 215.58 135.8 217.41 Q 135.8 219.38 135.43 220.85 Q 135.07 222.33 134.1 223.15 Q 133.13 223.97 131.34 223.97 Z M 129.81 211.32 L 130.64 211.32 Q 131.21 211.32 131.37 210.89 Q 131.53 210.45 131.53 209.84 L 131.53 207.8 Q 131.53 206.82 130.66 206.82 L 129.81 206.82 Z M 130.21 220.39 Q 131.79 220.39 131.79 218.9 L 131.79 216.36 Q 131.79 215.5 131.53 215 Q 131.27 214.49 130.56 214.49 L 129.81 214.49 L 129.81 220.37 Q 130.06 220.39 130.21 220.39 Z M 153.73 223.97 L 153.73 205.99 L 159.22 205.99 Q 161.43 205.99 162.44 207.07 Q 163.45 208.14 163.45 210.62 L 163.45 211.01 Q 163.45 212.44 162.94 213.33 Q 162.43 214.22 161.38 214.49 Q 162.29 214.72 162.79 215.36 Q 163.29 216 163.49 216.93 Q 163.68 217.85 163.68 218.93 Q 163.68 219.84 163.48 220.73 Q 163.28 221.63 162.79 222.36 Q 162.3 223.09 161.43 223.53 Q 160.56 223.97 159.22 223.97 Z M 157.69 213.05 L 158.52 213.05 Q 159.08 213.05 159.24 212.62 Q 159.41 212.18 159.41 211.57 L 159.41 210.33 Q 159.41 209.35 158.54 209.35 L 157.69 209.35 Z M 158.09 220.62 Q 159.67 220.62 159.67 219.13 L 159.67 218.09 Q 159.67 217.22 159.41 216.72 Q 159.15 216.22 158.44 216.22 L 157.69 216.22 L 157.69 220.6 Q 157.78 220.61 157.89 220.62 Q 158 220.62 158.09 220.62 Z M 165.01 223.97 L 165.01 205.99 L 173.13 205.99 L 173.13 209.91 L 169.14 209.91 L 169.14 212.88 L 172.97 212.88 L 172.97 216.69 L 169.14 216.69 L 169.14 220.01 L 173.39 220.01 L 173.39 223.97 Z M 174.73 223.97 L 174.73 205.99 L 178.78 205.99 L 178.78 220.51 L 182.96 220.51 L 182.96 223.97 Z"
        style="fill: url(&quot;#color-2&quot;); text-wrap-mode: nowrap"
      />
    </g>
  </g>
</svg>
