<?xml version="1.0" encoding="utf-8"?>
<svg xmlns="http://www.w3.org/2000/svg" viewBox="336.6474 307.8377 69.62 18.06" width="69.62px" height="18.06px" xmlns:bx="https://boxy-svg.com"><defs><linearGradient id="color-2" bx:pinned="true" gradientUnits="userSpaceOnUse" gradientTransform="matrix(2.096874, 0, 0, 2.921612, -125.683314, -396.041431)"><title>text</title><stop style="stop-color: rgb(255, 255, 255);"/></linearGradient><linearGradient id="color-1" bx:pinned="true" gradientUnits="userSpaceOnUse" gradientTransform="matrix(0.826366, 0, 0, 0.826366, 52.771497, 71.90389)"><title>accent</title><stop style="stop-color: rgb(255, 203, 42);"/></linearGradient></defs><g transform="matrix(1, 0, 0, 1, 209.28740241061746, 70.08767041694625)" id="group-1"><path d="M 127.36 255.72 L 127.36 237.75 L 132.86 237.75 Q 135.07 237.75 136.08 238.82 Q 137.09 239.9 137.09 242.38 L 137.09 242.77 Q 137.09 244.2 136.57 245.09 Q 136.06 245.97 135.01 246.25 Q 135.92 246.48 136.42 247.12 Q 136.92 247.76 137.12 248.68 Q 137.32 249.6 137.32 250.69 Q 137.32 251.6 137.11 252.49 Q 136.91 253.38 136.42 254.12 Q 135.93 254.85 135.06 255.29 Q 134.19 255.72 132.86 255.72 Z M 131.32 244.81 L 132.15 244.81 Q 132.72 244.81 132.88 244.37 Q 133.04 243.93 133.04 243.32 L 133.04 242.09 Q 133.04 241.11 132.18 241.11 L 131.32 241.11 Z M 131.73 252.38 Q 133.31 252.38 133.31 250.88 L 133.31 249.85 Q 133.31 248.98 133.05 248.48 Q 132.79 247.98 132.07 247.98 L 131.32 247.98 L 131.32 252.36 Q 131.42 252.37 131.53 252.38 Q 131.64 252.38 131.73 252.38 Z M 155.24 255.72 L 155.24 237.75 L 160.73 237.75 Q 162.95 237.75 163.96 238.82 Q 164.96 239.9 164.96 242.38 L 164.96 242.77 Q 164.96 244.2 164.45 245.09 Q 163.94 245.97 162.89 246.25 Q 163.8 246.48 164.3 247.12 Q 164.8 247.76 165 248.68 Q 165.19 249.6 165.19 250.69 Q 165.19 251.6 164.99 252.49 Q 164.79 253.38 164.3 254.12 Q 163.81 254.85 162.94 255.29 Q 162.07 255.72 160.73 255.72 Z M 159.2 244.81 L 160.03 244.81 Q 160.6 244.81 160.76 244.37 Q 160.92 243.93 160.92 243.32 L 160.92 242.09 Q 160.92 241.11 160.05 241.11 L 159.2 241.11 Z M 159.61 252.38 Q 161.18 252.38 161.18 250.88 L 161.18 249.85 Q 161.18 248.98 160.92 248.48 Q 160.67 247.98 159.95 247.98 L 159.2 247.98 L 159.2 252.36 Q 159.29 252.37 159.4 252.38 Q 159.51 252.38 159.61 252.38 Z M 166.53 255.72 L 166.53 237.75 L 174.64 237.75 L 174.64 241.66 L 170.65 241.66 L 170.65 244.64 L 174.48 244.64 L 174.48 248.45 L 170.65 248.45 L 170.65 251.77 L 174.9 251.77 L 174.9 255.72 Z M 176.24 255.72 L 176.24 237.75 L 180.3 237.75 L 180.3 252.27 L 184.47 252.27 L 184.47 255.72 Z" style="fill: url(&quot;#color-2&quot;); text-wrap-mode: nowrap;"/><path d="M 185.36 255.71 L 185.36 252.28 L 189.49 252.28 L 189.49 255.71 Z" style="fill: url(&quot;#color-1&quot;); text-wrap-mode: nowrap;"/><g transform="matrix(0.003919, 0, 0, -0.005492, 137.347017, 256.419376)" fill="#000000" stroke="none" style="" id="group-2"><path d="M 2035.52 3054.92 C 1740.62 2993.5 1497.08 2939.87 1493.54 2937.28 C 1486.45 2929.49 1210.14 2267.73 1213.69 2265.99 C 1219 2261.67 2828.15 2640.02 2828.15 2640.02 L 2589.03 3168.24 C 2589.03 3168.24 2330.43 3116.34 2035.52 3054.92 Z" style="transform-box: fill-box; transform-origin: 50% 50%; fill: url(&quot;#color-1&quot;);" transform="matrix(0.999848, -0.017452, 0.017452, 0.999848, 0, -0.000002)"/><path d="M 2015.57 2360.78 C 1500.12 2251.27 1064.38 2155.18 1064.38 2155.18 C 1064.38 2155.18 663.688 1161.84 666.506 1182.59 C 1281.02 1321.34 3334.54 1753.11 3334.54 1753.11 C 3334.54 1753.11 3273.98 1930.3 3176.75 2154.04 C 3009.65 2538.26 2975.66 2561.86 2975.66 2561.86 C 2975.66 2561.86 2531.02 2471.24 2015.57 2360.78 Z" style="fill: url(&quot;#color-1&quot;);"/><path d="M 2019 1360 C 1202.204 1185.044 527 1041 519 1038 C 511 1035 430 849 338 624 C 246 399 140 140 140 140 L 1005 140 L 1870 140 L 1870 368 C 1870 638 1876 667 1951 742 C 2058 849 2215 842 2317 726 C 2375 660 2380 633 2380 371 L 2380 140 L 3285 140 C 4097 140 4189 142 4183 155 C 4142 264 3540.825 1664.455 3514 1676 C 3496.616 1677.717 2836 1535 2019 1360 Z" style="fill: url(&quot;#color-1&quot;);"/></g><path d="M 190.52 255.81 L 190.52 241.73 L 188.11 241.73 L 188.11 237.84 L 196.98 237.84 L 196.98 241.73 L 194.58 241.73 L 194.58 255.81 Z" style="fill: url(&quot;#color-2&quot;); text-wrap-mode: nowrap;"/></g></svg>