<?xml version="1.0" encoding="utf-8"?>
<svg xmlns="http://www.w3.org/2000/svg" viewBox="375.6738 499.3821 26.4299 26.4298" width="32px" height="32px" xmlns:bx="https://boxy-svg.com" preserveAspectRatio="none"><defs><linearGradient id="color-0" bx:pinned="true" gradientUnits="userSpaceOnUse" gradientTransform="matrix(0.630872, 0, 0, 0.732064, 432.848537, 759.429357)"><title>Background</title><stop style="stop-color: rgb(75, 85, 99);"/></linearGradient><linearGradient id="color-1" bx:pinned="true" gradientUnits="userSpaceOnUse" gradientTransform="matrix(0.788689, -0.055758, 0.069317, 0.805348, -4973.555447, -7918.685736)"><title>accent</title><stop style="stop-color: rgb(255, 193, 0);"/></linearGradient></defs><g transform="matrix(1.02369797, 0, 0, 1.02369797, 29.8074317, -0.34432988)" id="object-0" style="transform-origin: 358.811px 512.668px;"><title>tower-2</title><rect style="filter: none; fill: url(&quot;#color-0&quot;); stroke-width: 1.00542px; fill-rule: nonzero; stroke-miterlimit: 1; stroke-dashoffset: -2.75px; paint-order: fill;" x="346.669" y="500.529" width="24.812" height="24.812" rx="5.241" ry="5.241"/><path d="M 351.91 500.026 L 366.24 500.026 C 367.79 500.048 369.29 500.697 370.301 501.709 C 371.313 502.72 371.962 504.22 371.984 505.77 L 371.984 520.1 C 371.962 521.65 371.313 523.15 370.301 524.161 C 369.29 525.173 367.79 525.822 366.24 525.844 L 351.91 525.844 C 350.36 525.822 348.86 525.173 347.849 524.161 C 346.837 523.15 346.188 521.65 346.166 520.1 L 346.166 505.77 C 346.188 504.22 346.837 502.72 347.849 501.709 C 348.86 500.697 350.36 500.048 351.91 500.026 Z M 348.56 502.42 C 347.674 503.305 347.15 504.425 347.172 505.77 L 347.172 520.1 C 347.15 521.445 347.674 522.565 348.56 523.45 C 349.445 524.336 350.565 524.86 351.91 524.838 L 366.24 524.838 C 367.585 524.86 368.705 524.336 369.59 523.45 C 370.476 522.565 371 521.445 370.978 520.1 L 370.978 505.77 C 371 504.425 370.476 503.305 369.59 502.42 C 368.705 501.534 367.585 501.01 366.24 501.032 L 351.91 501.032 C 350.565 501.01 349.445 501.534 348.56 502.42 Z" style="fill: url(&quot;#color-1&quot;);"/><g transform="matrix(0.003919, 0, 0, -0.005492, 350.472137, 521.618286)" fill="#000000" stroke="none" style="filter: none;" id="group-30"><path d="M 1984.677 3129.778 C 1689.777 3068.358 1497.08 2939.87 1493.54 2937.28 C 1486.45 2929.49 1210.14 2267.73 1213.69 2265.99 C 1373.373 2366.216 2275.76 2654.218 2828.15 2640.02 L 2589.03 3168.24 C 2589.03 3168.24 2279.587 3191.198 1984.677 3129.778" style="fill: url(&quot;#color-1&quot;); stroke-width: 212.522px; stroke-miterlimit: 1; stroke-dashoffset: -123.39px; fill-rule: nonzero; paint-order: stroke;" transform="matrix(0.99984801, -0.017452, 0.017452, 0.99984801, -47.11161419, 35.68177834)"/><path d="M 1991.505 2435.193 C 1476.055 2325.683 1064.38 2155.18 1064.38 2155.18 C 1064.38 2155.18 723.274 1309.557 672.722 1195.046 C 735.14 1282.331 1221.555 1488.627 1836.63 1628.946 L 1836.63 1788.208 C 1836.63 1938.701 1958.629 2060.7 2109.122 2060.7 L 2129.701 2060.7 C 2280.194 2060.7 2402.193 1938.701 2402.193 1788.208 L 2402.193 1730.539 C 2713.828 1770.776 3034.738 1784.643 3334.54 1753.11 C 3334.54 1753.11 3273.98 1930.3 3176.75 2154.04 C 3009.65 2538.26 2975.66 2561.86 2975.66 2561.86 C 2975.66 2561.86 2506.955 2545.653 1991.505 2435.193 M 672.722 1195.046 C 669.523 1190.573 667.438 1186.413 666.506 1182.59 C 666.288 1180.985 668.484 1185.447 672.722 1195.046" style="fill: url(&quot;#color-1&quot;); stroke-width: 212.517px; stroke-miterlimit: 1; stroke-dashoffset: -215.82px; fill-rule: nonzero; paint-order: stroke;"/><path d="M 1971.254 1541.319 C 1154.458 1366.363 527 1041 519 1038 C 511 1035 430 849 338 624 C 246 399 140 140 140 140 L 1782.55 140 L 1782.55 536.598 C 1782.55 687.091 1904.549 809.09 2055.042 809.09 L 2157.452 809.09 C 2307.945 809.09 2429.944 687.091 2429.944 536.598 L 2429.944 140 L 3285 140 C 4097 140 4189 142 4183 155 C 4142 264 3540.825 1664.455 3514 1676 C 3496.616 1677.717 2788.254 1716.319 1971.254 1541.319" style="fill: url(&quot;#color-1&quot;); stroke-width: 212.517px; stroke-miterlimit: 1; stroke-dashoffset: -326.44px; fill-rule: nonzero; paint-order: stroke;"/></g></g></svg>