<svg xmlns="http://www.w3.org/2000/svg" viewBox="0 0 26.4 26.4"><defs><linearGradient id="a" gradientTransform="matrix(.63087 0 0 .73206 32.848 159.43)" gradientUnits="userSpaceOnUse"><stop style="stop-color:#4b5563"/></linearGradient><linearGradient id="b" gradientTransform="matrix(.78869 -.05576 .06932 .80535 -4973.555 -7918.686)" gradientUnits="userSpaceOnUse"><stop style="stop-color:#ffc100"/></linearGradient></defs><g transform="translate(-354.4 -511.905)scale(1.0237)"><rect width="24.812" height="24.812" x="346.669" y="500.529" rx="5.241" ry="5.241" style="filter:none;fill:url(#a);stroke-width:1.00542px;fill-rule:nonzero;stroke-miterlimit:1;stroke-dashoffset:-2.75px;paint-order:fill"/><path d="M351.91 500.026h14.33c1.55.022 3.05.671 4.061 1.683 1.012 1.011 1.661 2.511 1.683 4.061v14.33c-.022 1.55-.671 3.05-1.683 4.061-1.011 1.012-2.511 1.661-4.061 1.683h-14.33c-1.55-.022-3.05-.671-4.061-1.683-1.012-1.011-1.661-2.511-1.683-4.061v-14.33c.022-1.55.671-3.05 1.683-4.061 1.011-1.012 2.511-1.661 4.061-1.683m-3.35 2.394c-.886.885-1.41 2.005-1.388 3.35v14.33c-.022 1.345.502 2.465 1.388 3.35s2.005 1.41 3.35 1.388h14.33c1.345.022 2.465-.502 3.35-1.388s1.41-2.005 1.388-3.35v-14.33c.022-1.345-.502-2.465-1.388-3.35s-2.005-1.41-3.35-1.388h-14.33c-1.345-.022-2.465.502-3.35 1.388" style="fill:url(#b)"/><g style="filter:none"><path d="M1984.677 3129.778c-294.9-61.42-487.597-189.908-491.137-192.498-7.09-7.79-283.4-669.55-279.85-671.29 159.683 100.226 1062.07 388.228 1614.46 374.03l-239.12 528.22s-309.443 22.958-604.353-38.462" style="fill:url(#b);stroke-width:212.522px;stroke-miterlimit:1;stroke-dashoffset:-123.39px;fill-rule:nonzero;paint-order:stroke" transform="matrix(.00392 .0001 .00007 -.0055 350.288 521.422)"/><path d="M1991.505 2435.193c-515.45-109.51-927.125-280.013-927.125-280.013s-341.106-845.623-391.658-960.134c62.418 87.285 548.833 293.581 1163.908 433.9v159.262c0 150.493 121.999 272.492 272.492 272.492h20.579c150.493 0 272.492-121.999 272.492-272.492v-57.669c311.635 40.237 632.545 54.104 932.347 22.571 0 0-60.56 177.19-157.79 400.93-167.1 384.22-201.09 407.82-201.09 407.82s-468.705-16.207-984.155-126.667M672.722 1195.046c-3.199-4.473-5.284-8.633-6.216-12.456-.218-1.605 1.978 2.857 6.216 12.456" style="fill:url(#b);stroke-width:212.517px;stroke-miterlimit:1;stroke-dashoffset:-215.82px;fill-rule:nonzero;paint-order:stroke" transform="matrix(.00392 0 0 -.0055 350.472 521.618)"/><path d="M1971.254 1541.319C1154.458 1366.363 527 1041 519 1038s-89-189-181-414-198-484-198-484h1642.55v396.598c0 150.493 121.999 272.492 272.492 272.492h102.41c150.493 0 272.492-121.999 272.492-272.492V140H3285c812 0 904 2 898 15-41 109-642.175 1509.455-669 1521-17.384 1.717-725.746 40.319-1542.746-134.681" style="fill:url(#b);stroke-width:212.517px;stroke-miterlimit:1;stroke-dashoffset:-326.44px;fill-rule:nonzero;paint-order:stroke" transform="matrix(.00392 0 0 -.0055 350.472 521.618)"/></g></g></svg>