<?xml version="1.0" encoding="utf-8"?>
<svg xmlns="http://www.w3.org/2000/svg" viewBox="217.9616 410.5736 25.394 25.394" width="25.394px" height="25.394px" xmlns:bx="https://boxy-svg.com"><defs><linearGradient id="color-0" bx:pinned="true" gradientUnits="userSpaceOnUse" gradientTransform="matrix(0.645682, 0, 0, 0.74925, 384.041837, 244.209076)"><title>Background</title><stop style="stop-color: rgb(75, 85, 99);"/></linearGradient><linearGradient id="color-1" bx:pinned="true" gradientUnits="userSpaceOnUse" gradientTransform="matrix(0.810148, -0.028836, 0.014384, 0.825743, -4550.296249, -10556.497429)"><title>accent</title><stop style="stop-color: rgb(255, 193, 0);"/></linearGradient><filter id="point-light-filter-0" bx:preset="point-light 1 0.5 0.5 0.5 4 1 0.2 0 #ffffff" primitiveUnits="objectBoundingBox" color-interpolation-filters="sRGB" x="-50%" y="-50%" width="200%" height="200%"><feSpecularLighting result="specular-lighting" lighting-color="#ffffff" specularConstant="1" specularExponent="4"><fePointLight x="0.5" y="0.5" z="0.5"/></feSpecularLighting><feDiffuseLighting result="diffuse-lighting" lighting-color="#ffffff" diffuseConstant="0.2"><fePointLight x="0.5" y="0.5" z="0.5"/></feDiffuseLighting><feMerge result="lighting"><feMergeNode in="diffuse-lighting"/><feMergeNode in="specular-lighting"/></feMerge><feComposite in="SourceGraphic" in2="lighting" operator="arithmetic" k1="1" k2="0" k3="0" k4="0"/></filter></defs><g transform="matrix(1, 0, 0, 1, -104.02935791015622, 66.71658325195315)" id="object-0"><title>blabel-icon</title><rect style="fill: url(&quot;#color-0&quot;); filter: url(&quot;#point-light-filter-0&quot;); paint-order: fill; stroke-dashoffset: 54px; stroke: url(&quot;#color-1&quot;); stroke-miterlimit: 1;" x="321.991" y="343.857" width="25.394" height="25.394" rx="5" ry="5"/><g transform="matrix(0.003919, 0, 0, -0.005492, 326.065125, 364.5495)" fill="#000000" stroke="none" style="filter: none;" id="group-3"><path d="M 1984.677 3129.778 C 1689.777 3068.358 1497.08 2939.87 1493.54 2937.28 C 1486.45 2929.49 1210.14 2267.73 1213.69 2265.99 C 1373.373 2366.216 2275.76 2654.218 2828.15 2640.02 L 2589.03 3168.24 C 2589.03 3168.24 2279.587 3191.198 1984.677 3129.778 Z" style="fill: url(&quot;#color-1&quot;);" transform="matrix(0.99984801, -0.017452, 0.017452, 0.99984801, -47.11161419, 35.68177834)"/><path d="M 1991.505 2435.193 C 1476.055 2325.683 1064.38 2155.18 1064.38 2155.18 C 1064.38 2155.18 663.688 1161.84 666.506 1182.59 C 699.47 1317.8 2174.907 1875.079 3334.54 1753.11 C 3334.54 1753.11 3273.98 1930.3 3176.75 2154.04 C 3009.65 2538.26 2975.66 2561.86 2975.66 2561.86 C 2975.66 2561.86 2506.955 2545.653 1991.505 2435.193 Z" style="fill: url(&quot;#color-1&quot;);"/><path d="M 1971.254 1541.319 C 1154.458 1366.363 527 1041 519 1038 C 511 1035 430 849 338 624 C 246 399 140 140 140 140 L 1005 140 L 1870 140 L 1870 368 C 1870 638 1876 667 1951 742 C 2058 849 2215 842 2317 726 C 2375 660 2380 633 2380 371 L 2380 140 L 3285 140 C 4097 140 4189 142 4183 155 C 4142 264 3540.825 1664.455 3514 1676 C 3496.616 1677.717 2788.254 1716.319 1971.254 1541.319 Z" style="fill: url(&quot;#color-1&quot;); transform-box: fill-box; transform-origin: 50% 50%;"/></g></g></svg>